<?xml version="1.0" encoding="utf-8"?>
<!-- Generator: Adobe Illustrator 22.0.1, SVG Export Plug-In . SVG Version: 6.00 Build 0)  -->
<svg version="1.1" id="Capa_1" xmlns="http://www.w3.org/2000/svg" xmlns:xlink="http://www.w3.org/1999/xlink" x="0px" y="0px"
	 viewBox="0 0 512 512" style="enable-background:new 0 0 512 512;" xml:space="preserve">
<style type="text/css">
	.st0{fill:#00447B;}
</style>
<g>
	<path class="st0" d="M472.4,92.2H359.7V43.6c0-13-10.6-23.5-23.5-23.5H175.8c-13,0-23.5,10.6-23.5,23.5v48.6H39.6
		C17.8,92.2,0,109.9,0,131.8v320.6C0,474.2,17.8,492,39.6,492h432.8c21.8,0,39.6-17.8,39.6-39.6V131.8
		C512,109.9,494.2,92.2,472.4,92.2z M175.8,35.1h160.3c4.7,0,8.5,3.8,8.5,8.5v8.5H167.3v-8.5C167.3,38.9,171.1,35.1,175.8,35.1z
		 M167.3,67.1h177.3v25H167.3V67.1z M497,452.4c0,13.5-11,24.5-24.5,24.5H39.6c-13.5,0-24.5-11-24.5-24.5V131.8
		c0-13.5,11-24.5,24.5-24.5h432.8c13.5,0,24.5,11,24.5,24.5V452.4z"/>
	<path class="st0" d="M456.4,156.3H55.6c-8.6,0-15.5,7-15.5,15.5v224.4c0,8.6,7,15.5,15.5,15.5h305.8c3.5,18.2,19.6,32.1,38.9,32.1
		s35.3-13.8,38.9-32.1h17.3c8.6,0,15.5-7,15.5-15.5V171.8C471.9,163.3,465,156.3,456.4,156.3z M55.6,171.3h273v89.2h-8.5
		c-2.5,0-4.9,1.3-6.3,3.3l-9.8,14.7l-9.8-14.7c-1.4-2.1-3.7-3.3-6.3-3.3h-27l-14.1-35.4c-1.2-3-4.1-4.9-7.3-4.7
		c-3.2,0.1-5.9,2.3-6.9,5.3l-19.2,63.9l-15.3-25.5c-1.4-2.3-3.8-3.6-6.4-3.6h-27.4l-22-43.9c-1.3-2.6-4-4.2-6.9-4.2
		c-2.9,0.1-5.5,1.8-6.7,4.5l-26.5,59.7l-8.5-12.7c-1.4-2.1-3.7-3.3-6.3-3.3H55.1v-88.7C55.1,171.6,55.3,171.3,55.6,171.3z
		 M55.1,396.3V275.5h28.5l13.8,20.7c1.5,2.3,4.2,3.5,6.9,3.3c2.7-0.2,5.1-1.9,6.2-4.4l25.6-57.6l16.9,33.9c1.3,2.5,3.9,4.2,6.7,4.2
		h27.8l21.9,36.4c1.4,2.3,3.8,3.6,6.4,3.6c0.3,0,0.6,0,0.9-0.1c3-0.4,5.4-2.4,6.3-5.3l17.9-59.5l8,20.1c1.1,2.9,3.9,4.7,7,4.7h28
		l13.8,20.7c1.4,2.1,3.7,3.3,6.3,3.3s4.9-1.3,6.3-3.3l13.8-20.7h4.5v121.2h-273C55.3,396.8,55.1,396.6,55.1,396.3z M400.3,428.8
		c-13.5,0-24.5-11-24.5-24.5c0-13.5,11-24.5,24.5-24.5c13.5,0,24.5,11,24.5,24.5c0,0,0,0,0,0c0,0,0,0,0,0
		C424.8,417.8,413.8,428.8,400.3,428.8z M456.9,396.3c0,0.3-0.2,0.5-0.5,0.5h-17.3c-3.5-18.2-19.6-32.1-38.9-32.1
		s-35.3,13.8-38.9,32.1h-17.8V171.3h112.7c0.3,0,0.5,0.2,0.5,0.5V396.3z"/>
	<path class="st0" d="M384.3,196.4h-16c-4.2,0-7.5,3.4-7.5,7.5s3.4,7.5,7.5,7.5h16c4.2,0,7.5-3.4,7.5-7.5S388.4,196.4,384.3,196.4z"
		/>
	<path class="st0" d="M432.3,196.4h-16c-4.2,0-7.5,3.4-7.5,7.5s3.4,7.5,7.5,7.5h16c4.2,0,7.5-3.4,7.5-7.5S436.5,196.4,432.3,196.4z"
		/>
	<path class="st0" d="M384.3,228.4h-16c-4.2,0-7.5,3.4-7.5,7.5s3.4,7.5,7.5,7.5h16c4.2,0,7.5-3.4,7.5-7.5S388.4,228.4,384.3,228.4z"
		/>
	<path class="st0" d="M432.3,228.4h-16c-4.2,0-7.5,3.4-7.5,7.5s3.4,7.5,7.5,7.5h16c4.2,0,7.5-3.4,7.5-7.5S436.5,228.4,432.3,228.4z"
		/>
	<path class="st0" d="M384.3,260.5h-16c-4.2,0-7.5,3.4-7.5,7.5c0,4.2,3.4,7.5,7.5,7.5h16c4.2,0,7.5-3.4,7.5-7.5
		C391.8,263.9,388.4,260.5,384.3,260.5z"/>
	<path class="st0" d="M432.3,260.5h-16c-4.2,0-7.5,3.4-7.5,7.5c0,4.2,3.4,7.5,7.5,7.5h16c4.2,0,7.5-3.4,7.5-7.5
		C439.9,263.9,436.5,260.5,432.3,260.5z"/>
	<path class="st0" d="M384.3,292.6h-16c-4.2,0-7.5,3.4-7.5,7.5c0,4.2,3.4,7.5,7.5,7.5h16c4.2,0,7.5-3.4,7.5-7.5
		C391.8,295.9,388.4,292.6,384.3,292.6z"/>
	<path class="st0" d="M432.3,292.6h-16c-4.2,0-7.5,3.4-7.5,7.5c0,4.2,3.4,7.5,7.5,7.5h16c4.2,0,7.5-3.4,7.5-7.5
		C439.9,295.9,436.5,292.6,432.3,292.6z"/>
	<path class="st0" d="M384.3,324.6h-16c-4.2,0-7.5,3.4-7.5,7.5c0,4.2,3.4,7.5,7.5,7.5h16c4.2,0,7.5-3.4,7.5-7.5
		C391.8,328,388.4,324.6,384.3,324.6z"/>
	<path class="st0" d="M432.3,324.6h-16c-4.2,0-7.5,3.4-7.5,7.5c0,4.2,3.4,7.5,7.5,7.5h16c4.2,0,7.5-3.4,7.5-7.5
		C439.9,328,436.5,324.6,432.3,324.6z"/>
	<path class="st0" d="M79.7,355.7h24c4.2,0,7.5-3.4,7.5-7.5c0-4.2-3.4-7.5-7.5-7.5h-24c-4.2,0-7.5,3.4-7.5,7.5
		C72.1,352.3,75.5,355.7,79.7,355.7z"/>
	<path class="st0" d="M183.9,364.7h-16c-4.2,0-7.5,3.4-7.5,7.5c0,4.2,3.4,7.5,7.5,7.5h16c4.2,0,7.5-3.4,7.5-7.5
		C191.4,368.1,188,364.7,183.9,364.7z"/>
	<path class="st0" d="M232,364.7h-16c-4.2,0-7.5,3.4-7.5,7.5c0,4.2,3.4,7.5,7.5,7.5h16c4.2,0,7.5-3.4,7.5-7.5
		C239.5,368.1,236.1,364.7,232,364.7z"/>
	<path class="st0" d="M272,364.7h-8c-4.2,0-7.5,3.4-7.5,7.5c0,4.2,3.4,7.5,7.5,7.5h8c4.2,0,7.5-3.4,7.5-7.5
		C279.5,368.1,276.2,364.7,272,364.7z"/>
	<path class="st0" d="M304.1,364.7h-8c-4.2,0-7.5,3.4-7.5,7.5c0,4.2,3.4,7.5,7.5,7.5h8c4.2,0,7.5-3.4,7.5-7.5
		C311.6,368.1,308.2,364.7,304.1,364.7z"/>
	<path class="st0" d="M272,340.7h-8c-4.2,0-7.5,3.4-7.5,7.5c0,4.2,3.4,7.5,7.5,7.5h8c4.2,0,7.5-3.4,7.5-7.5
		C279.5,344,276.2,340.7,272,340.7z"/>
	<path class="st0" d="M135.8,364.7H79.7c-4.2,0-7.5,3.4-7.5,7.5c0,4.2,3.4,7.5,7.5,7.5h56.1c4.2,0,7.5-3.4,7.5-7.5
		C143.3,368.1,139.9,364.7,135.8,364.7z"/>
</g>
</svg>
