<?xml version="1.0"?>
<svg xmlns="http://www.w3.org/2000/svg" xmlns:xlink="http://www.w3.org/1999/xlink" version="1.1" id="Capa_1" x="0px" y="0px" width="512px" height="512px" viewBox="0 0 79.541 79.541" style="enable-background:new 0 0 79.541 79.541;" xml:space="preserve"><g><g>
	<path d="M78.384,34.29l-0.011-0.207l-0.062-0.205c-1.688-4.036-7.561-5.113-14.737-5.352   c-7.55,0.329-14.095,1.315-14.954,6.258v7.677c0.218,1.278,0.828,2.288,1.729,3.091v28.402c0.87,4.566,6.524,5.25,13.028,5.582   c6.482-0.332,12.147-1.005,12.997-5.582l0.01-28.117c1.108-0.859,1.885-1.932,2.134-3.382L78.384,34.29z M63.264,31.757   c0.104,0,0.207,0,0.311,0.01c3.293,0,6.297,0.445,8.44,1.113c1.356,0.396,2.134,0.917,2.631,1.331   c-0.519,0.396-1.356,0.896-2.589,1.245c-2.149,0.689-5.147,1.145-8.451,1.145c-3.531,0-6.721-0.541-8.906-1.271   c-1.046-0.362-1.844-0.784-2.31-1.162C53.809,32.998,58.199,31.757,63.264,31.757z M73.154,73.954c0,0,0.03,0.025-0.311,0.301   c-1.088,0.963-5.003,2.102-9.466,2.039c-3.004,0.011-5.717-0.435-7.529-1.076c-0.911-0.29-1.595-0.674-1.947-0.963   c-0.326-0.291-0.259-0.301-0.311-0.301v-5.686c4.277,1.688,9.673,1.429,9.673,1.429V54.806c-4.484,0-7.881-1.285-9.673-2.145   v-5.333c2.692,0.896,6.214,1.222,9.983,1.377c3.604-0.14,6.949-0.455,9.58-1.263V73.954z M74.821,43.01   c-1.367,1.222-5.986,2.511-11.247,2.475c-3.531,0-6.711-0.507-8.906-1.269c-1.088-0.378-1.905-0.823-2.361-1.206   c-0.466-0.389-0.466-0.549-0.466-0.549v-4.909c2.786,1.533,7.021,2.063,11.765,2.263c4.712-0.147,8.834-0.684,11.609-2.151   l0.072,4.808C75.287,42.471,75.277,42.632,74.821,43.01z M38.018,10.807H24.252V3.07h4.771c0.849,0,1.543-0.688,1.543-1.532   c0-0.85-0.694-1.538-1.543-1.538H11.516c-0.849,0-1.533,0.688-1.533,1.538c0,0.844,0.684,1.532,1.533,1.532h4.772v7.736H2.535   c-0.829,0-1.512,0.679-1.512,1.507c0,0.831,0.684,1.504,1.512,1.504h10.843v41.645h3.694v3.558c0,0-0.238,1.077,1.665,1.636v17.347   c0,0.85,0.686,1.538,1.532,1.538c0.85,0,1.533-0.688,1.533-1.538V60.656c1.903-0.554,1.665-1.636,1.665-1.636v-3.558h3.697V13.818   h10.853c0.826,0,1.499-0.673,1.499-1.504C39.517,11.485,38.844,10.807,38.018,10.807z M24.306,34.083h-8.07V13.818h8.065v20.265   H24.306z" data-original="#010002" class="active-path" data-old_color="#010002" fill="#00447B"/>
</g></g> </svg>
